name C:\Users\tom_v\MusculoskeletalSpecialization\ResultsSprinting\Case_1\motion.mot
datacolumns 32
datarows 10
range 0.00000000 0.04267493
endheader 
time	pelvis_tilt	pelvis_list	pelvis_rotation	pelvis_tx	pelvis_ty	pelvis_tz	hip_flexion_r	hip_adduction_r	hip_rotation_r	knee_angle_r	ankle_angle_r	subtalar_angle_r	mtp_angle_r	hip_flexion_l	hip_adduction_l	hip_rotation_l	knee_angle_l	ankle_angle_l	subtalar_angle_l	mtp_angle_l	lumbar_extension	lumbar_bending	lumbar_rotation	arm_flex_r	arm_add_r	arm_rot_r	elbow_flex_r	arm_flex_l	arm_add_l	arm_rot_l	elbow_flex_l	
          0.00000000	         -6.01594384	         -5.78712116	          2.25390310	          0.00000000	          0.96125679	          0.00554052	         26.39654341	          6.41759498	         -8.64579769	         -7.34498016	          6.84254250	          2.06355646	         -2.35017842	         13.30816859	        -11.75529248	         -4.75029447	        -65.39259180	         -4.89568548	          8.35793991	         -1.91771543	        -11.66628799	          8.24563973	         -8.17111102	         11.10125530	        -10.39304364	        -13.07871898	          1.30920879	         11.29687318	        -23.89980485	         18.68813165	         58.37474693	
          0.00474166	         -6.52485768	         -4.93757811	          0.48349097	          0.03979213	          0.95833327	          0.00410128	         24.72642279	          5.75969945	         -8.06109109	         -6.13724565	          4.06200913	          2.66398409	         -4.78362047	         14.99586950	        -10.11415199	         -4.51568144	        -66.21879954	         -4.32597805	          8.59385032	         -4.07269127	        -10.74967187	          7.65809204	         -5.57412201	         14.63613097	        -12.58695726	        -13.06869286	          0.09264785	         13.76768806	        -18.30430796	         19.37652989	         41.14621077	
          0.00948332	         -6.96806341	         -3.97348317	         -1.14030240	          0.07958723	          0.95481383	          0.00259063	         23.05522530	          4.86042581	         -7.48536233	         -5.07042105	          0.47416712	          2.24707406	          1.60627513	         16.80091811	         -8.44869404	         -4.23378584	        -67.09773934	         -4.26351849	          8.93232242	         -1.26998937	         -9.87522099	          6.98011257	         -3.29316760	         17.93858015	        -14.93188367	        -12.28912065	          0.36864490	         15.95050671	        -12.87435268	         17.74738074	         23.74743216	
          0.01422498	         -7.41658568	         -2.86169885	         -2.62167460	          0.11946444	          0.95051025	          0.00116506	         21.47807937	          3.70058967	         -7.04340793	         -4.22496393	         -2.16006220	          1.56366760	          3.98305770	         18.76149253	         -6.74555297	         -3.95717898	        -68.04936165	         -3.24244000	          9.73257208	          1.51636146	         -8.97126474	          6.15957596	         -1.33952985	         20.36933360	        -17.26685737	        -12.14838155	          3.78935414	         17.08593665	         -8.64383739	         13.35442192	          9.35911533	
          0.01896663	         -7.90470228	         -1.64241859	         -3.99147827	          0.15951532	          0.94556668	         -0.00006848	         20.03690106	          2.36587024	         -7.00153701	         -3.71918389	         -5.99820328	          0.77986693	          6.49272730	         20.88557141	         -5.07949140	         -3.76014770	        -69.00829485	         -1.62342640	         10.63593798	          3.20526647	         -8.01398443	          5.26727846	          0.33632615	         21.32779626	        -19.44937059	        -13.10120705	         11.74035780	         16.15847947	         -6.32166654	          5.91770268	          1.21297758	
          0.02370829	         -8.51023327	         -0.76836559	         -5.54559443	          0.19944373	          0.94062173	         -0.00061738	         19.05231262	          1.60834814	         -5.59551983	         -5.19333010	         -4.70791839	          1.13717238	          7.88519011	         23.19436484	         -4.12006022	         -3.84357270	        -69.96810525	          0.63343219	         11.49271668	         -1.32670226	         -7.05994410	          4.81999081	          2.11182992	         20.68618149	        -21.72445712	        -12.89322336	         24.44811875	         12.41889182	         -5.51573437	         -3.09128622	          0.75672100	
          0.02844995	         -9.13182835	         -0.64780402	         -7.37701361	          0.23897776	          0.93666472	         -0.00035769	         18.17523228	          1.98667495	         -1.80512742	         -7.47006205	          0.15756180	         -0.77328075	         10.04699680	         25.52924373	         -4.34693756	         -4.09041027	        -70.88148415	          1.68146900	         11.91743028	         -3.82045562	         -6.39910227	          5.24819905	          4.12574926	         19.19336040	        -24.71450286	        -10.74730972	         40.38323026	          5.53238939	         -5.13083664	        -10.29336427	          8.20979922	
          0.03319161	         -9.54259876	         -0.79081335	         -9.26030227	          0.27819800	          0.93382384	          0.00033592	         16.95078147	          2.71280704	          2.25096377	         -9.26337697	          2.62115061	         -3.85888709	         12.90132770	         27.60739143	         -5.01314071	         -4.31623423	        -71.61439784	          1.92074203	         11.95177944	         -3.76946235	         -6.21808647	          5.89748640	          6.05659403	         18.38037325	        -28.54357080	         -7.24614133	         56.41731410	         -3.86081927	         -4.91670612	        -13.09761634	         21.72186535	
          0.03793327	         -9.68122361	         -0.73958396	        -10.97624600	          0.31714171	          0.93179167	          0.00113891	         15.39855411	          3.04057191	          5.67719552	        -10.86776235	          4.47369942	         -6.28466898	         16.03795035	         29.41137930	         -5.43678795	         -4.41763083	        -72.10252387	          2.06629628	         11.85419048	         -1.51587855	         -6.39457337	          6.17634517	          7.66568602	         19.23090831	        -32.84160348	         -2.80628617	         70.81498901	        -14.16279968	         -5.38235336	        -13.01234703	         36.97157575	
          0.04267493	         -9.72388700	         -0.32402683	        -12.37526737	          0.35587369	          0.93012386	          0.00180889	         13.78502876	          2.69794274	          8.03964105	        -12.34500981	          6.14400334	         -7.50397913	         19.19957692	         31.20077495	         -5.35575536	         -4.31476294	        -72.36028067	          2.74112811	         11.88748772	          1.68650811	         -6.55544183	          5.93524492	          8.82869491	         22.13665672	        -37.07502701	          2.58447672	         83.05088380	        -24.22650654	         -6.60737361	        -12.33843942	         50.66287525	
